<?xml version="1.0" standalone="no"?>
<!DOCTYPE svg PUBLIC "-//W3C//DTD SVG 20010904//EN"
 "http://www.w3.org/TR/2001/REC-SVG-20010904/DTD/svg10.dtd">
<svg version="1.0" xmlns="http://www.w3.org/2000/svg"
 width="400.000000pt" height="400.000000pt" viewBox="0 0 400.000000 400.000000"
 preserveAspectRatio="xMidYMid meet">
<metadata>
Created by potrace 1.11, written by Peter Selinger 2001-2013
</metadata>
<g transform="translate(0.000000,400.000000) scale(0.100000,-0.100000)"
fill="#000000" stroke="none">
<path d="M3227 3118 c-3 -11 0 -36 8 -55 13 -31 13 -35 -3 -41 -26 -10 -111
-66 -112 -73 0 -3 30 -2 66 3 68 8 108 26 133 61 7 10 28 26 45 33 l31 15 -52
-4 c-44 -3 -56 0 -73 18 -11 12 -20 31 -20 43 0 28 -16 28 -23 0z"/>
<path d="M2510 2968 c-47 -46 -111 -103 -142 -127 -67 -50 -74 -60 -22 -29 28
16 50 21 94 19 32 -1 61 2 64 7 9 14 -50 23 -80 11 -47 -17 -38 -1 16 28 28
15 66 37 83 48 33 21 81 97 75 116 -2 6 -42 -27 -88 -73z"/>
<path d="M2955 2956 c-39 -18 -105 -55 -147 -83 -42 -28 -89 -54 -104 -57 -14
-4 -24 -9 -22 -12 3 -2 23 2 46 10 55 20 134 22 206 7 34 -8 73 -10 95 -5 l36
7 -70 23 c-47 15 -82 21 -107 17 -52 -8 -47 2 10 21 45 15 143 88 132 99 -3 3
-37 -9 -75 -27z"/>
<path d="M2661 2923 c-18 -9 -45 -35 -59 -57 -14 -23 -39 -56 -56 -73 -39 -43
-29 -42 24 2 23 19 55 43 72 52 28 17 78 93 61 93 -5 0 -23 -8 -42 -17z"/>
<path d="M2236 2883 c-13 -21 -27 -56 -31 -78 -9 -50 -32 -90 -62 -106 -12 -7
-21 -14 -19 -16 9 -9 54 30 85 73 34 46 77 164 60 164 -5 0 -20 -17 -33 -37z"/>
<path d="M1930 2803 c-62 -30 -100 -57 -140 -99 -30 -32 -44 -51 -30 -43 14 9
69 40 123 70 55 29 108 66 119 82 11 15 19 29 17 30 -2 1 -42 -17 -89 -40z"/>
<path d="M1690 2720 c-28 -56 -50 -103 -48 -106 2 -2 21 13 41 34 27 28 39 52
51 102 8 36 13 66 11 68 -1 2 -26 -43 -55 -98z"/>
<path d="M2598 2777 c-31 -13 -60 -26 -65 -31 -4 -4 23 4 61 18 67 26 90 37
70 35 -5 0 -35 -10 -66 -22z"/>
<path d="M2244 2754 c-18 -14 -18 -15 4 -4 12 6 22 13 22 15 0 8 -5 6 -26 -11z"/>
<path d="M2497 2744 c-3 -4 -50 -21 -104 -40 -54 -18 -92 -33 -86 -33 21 -1
202 59 208 69 7 11 -8 14 -18 4z"/>
<path d="M1990 2689 c-25 -22 -62 -55 -83 -74 -27 -24 -51 -36 -85 -40 -71 -9
-81 -13 -42 -14 43 -1 232 30 355 59 50 12 106 22 126 23 26 1 35 5 32 14 -3
8 -13 11 -22 9 -76 -23 -326 -76 -353 -76 -21 0 -3 19 33 36 26 11 51 33 66
57 13 21 23 40 21 42 -2 2 -23 -14 -48 -36z"/>
<path d="M2705 2680 c-87 -28 -96 -29 -245 -25 -85 2 -144 2 -130 -1 61 -11
71 -16 102 -43 47 -41 96 -64 151 -71 26 -4 47 -4 47 -1 -1 9 -138 85 -179 98
-31 10 -20 11 69 6 217 -13 256 -7 304 46 19 21 19 21 -5 20 -13 0 -64 -13
-114 -29z"/>
<path d="M2090 2670 c-9 -6 -10 -10 -3 -10 6 0 15 5 18 10 8 12 4 12 -15 0z"/>
<path d="M2125 2549 c53 -23 183 -39 172 -22 -7 11 -87 29 -167 38 l-55 5 50
-21z"/>
<path d="M1663 2553 c15 -2 39 -2 55 0 15 2 2 4 -28 4 -30 0 -43 -2 -27 -4z"/>
<path d="M1895 2481 c-88 -16 -89 -16 -40 -19 56 -4 204 15 226 29 22 14 -84
9 -186 -10z"/>
<path d="M1666 2420 c44 -59 86 -90 119 -90 20 0 -97 115 -138 136 -25 13 -23
9 19 -46z"/>
<path d="M1758 2463 c7 -3 16 -2 19 1 4 3 -2 6 -13 5 -11 0 -14 -3 -6 -6z"/>
<path d="M1860 2426 c0 -2 7 -7 16 -10 8 -3 12 -2 9 4 -6 10 -25 14 -25 6z"/>
<path d="M2080 2381 c36 -21 131 -32 178 -22 110 23 100 30 -48 30 -86 0 -139
-3 -130 -8z"/>
<path d="M1989 2336 c29 -30 124 -80 142 -74 19 6 -48 53 -111 78 l-55 22 24
-26z"/>
<path d="M986 2174 c-60 -52 -258 -125 -390 -144 l-61 -9 74 5 c77 5 210 44
304 89 28 13 52 23 53 22 1 -1 -38 -53 -87 -114 -58 -73 -96 -113 -109 -113
-25 0 -35 -18 -13 -22 13 -2 0 -22 -55 -85 -103 -117 -176 -173 -257 -194 -25
-7 -23 -8 13 -5 29 3 63 17 100 42 57 37 170 144 210 197 12 16 26 26 31 23 5
-4 13 -36 16 -71 4 -38 15 -75 25 -87 23 -28 69 -28 110 2 29 21 33 22 42 7
13 -24 28 -21 60 10 l28 27 0 -31 c0 -34 26 -63 57 -63 24 0 80 59 115 119 23
41 45 56 35 24 -33 -99 -33 -133 -2 -133 17 0 86 59 69 60 -6 0 -21 -11 -34
-25 -13 -14 -27 -25 -32 -25 -12 0 -10 44 3 77 29 72 9 148 -28 110 -12 -12
-13 -19 -5 -29 8 -10 -1 -30 -35 -81 -54 -81 -83 -99 -113 -72 -28 26 -25 62
10 102 31 35 42 66 16 44 -7 -6 -20 -9 -28 -6 -24 9 -64 -11 -113 -59 -26 -24
-61 -50 -77 -57 -28 -11 -33 -11 -49 10 -12 14 -19 40 -19 65 -1 22 -7 58 -14
78 -13 36 -13 37 18 50 17 7 95 61 174 120 79 60 152 108 162 108 10 0 22 5
25 10 3 6 0 10 -7 10 -25 0 -85 -36 -170 -102 -86 -68 -197 -142 -203 -136 -2
1 37 55 87 118 79 101 115 157 106 165 -2 2 -21 -12 -42 -31z m304 -326 c0
-16 -3 -19 -11 -11 -6 6 -8 16 -5 22 11 17 16 13 16 -11z m-180 -38 c0 -5 -21
-31 -46 -57 -31 -32 -48 -44 -51 -35 -8 21 19 63 52 84 34 20 45 22 45 8z"/>
<path d="M2855 2133 c-22 -14 -68 -50 -102 -80 -33 -29 -70 -53 -81 -53 -31 0
-80 -20 -86 -35 -3 -8 5 -23 18 -33 20 -15 22 -21 11 -35 -7 -11 -26 -17 -48
-17 -92 0 -151 -66 -117 -130 30 -57 218 -67 315 -18 28 14 59 35 69 47 11 12
29 21 40 21 12 0 16 4 11 8 -6 4 -11 32 -10 62 0 30 -4 62 -8 71 -6 12 -1 19
22 29 32 13 111 92 111 110 0 6 -11 15 -25 20 -28 11 -125 -16 -175 -47 l-25
-16 19 21 c10 12 43 38 72 58 30 21 54 39 54 41 0 10 -31 -1 -65 -24z m105
-52 c0 -15 -42 -63 -82 -91 -36 -26 -41 -27 -66 -14 -15 8 -37 14 -49 14 -33
0 -28 17 10 36 97 51 187 77 187 55z m-280 -99 c0 -16 -48 -54 -59 -47 -18 11
-12 35 12 45 29 11 47 12 47 2z m120 -15 l25 -9 -30 -13 c-39 -17 -125 -30
-125 -19 0 4 12 20 27 36 27 29 42 29 103 5z m44 -43 c9 -24 7 -63 -4 -84 -9
-17 -12 -17 -82 5 -40 13 -82 25 -93 27 -11 2 -20 10 -20 18 0 11 17 17 65 22
36 3 76 11 90 17 34 14 37 13 44 -5z m-254 -58 c0 -2 -11 -24 -25 -47 -27 -47
-30 -59 -16 -59 4 0 22 23 39 50 22 35 38 50 52 50 20 0 169 -39 179 -47 11
-8 -46 -53 -90 -73 -107 -46 -234 -34 -261 25 -10 22 -8 30 9 53 11 15 35 32
54 39 35 12 59 16 59 9z"/>
<path d="M354 2006 c-63 -15 -140 -59 -155 -89 -11 -20 -9 -20 17 4 54 50 127
76 249 89 l70 7 -65 1 c-36 0 -88 -5 -116 -12z"/>
<path d="M3517 1893 c-12 -11 -8 -41 6 -46 16 -5 -56 -93 -97 -118 -17 -10
-24 -19 -16 -19 8 0 41 28 74 63 33 34 56 53 52 42 -17 -42 -28 -95 -22 -110
12 -31 45 -14 110 56 37 40 64 74 61 78 -3 3 -18 -10 -32 -29 -35 -46 -101
-110 -113 -110 -14 0 -13 47 1 72 29 55 9 155 -24 121z m28 -33 c-5 -8 -11 -8
-17 -2 -6 6 -7 16 -3 22 5 8 11 8 17 2 6 -6 7 -16 3 -22z"/>
<path d="M1633 1797 c-85 -96 -95 -126 -18 -59 63 55 151 115 164 111 6 -2 -5
-24 -24 -48 -55 -69 -42 -101 41 -98 32 2 51 12 94 48 68 57 131 99 148 99 7
0 -2 -20 -23 -47 -41 -54 -42 -83 -4 -97 21 -7 37 -4 67 11 32 16 42 17 46 7
3 -7 17 -16 31 -20 27 -7 85 12 85 28 0 5 -3 8 -7 6 -5 -2 -21 -10 -36 -18
-24 -12 -30 -12 -43 1 -22 23 0 79 30 79 29 0 91 41 91 60 0 9 -12 16 -31 18
-38 4 -86 -33 -115 -89 -27 -53 -87 -89 -118 -70 -17 11 -8 40 29 86 35 44 36
51 13 59 -10 4 -36 -5 -66 -24 l-49 -30 32 40 c54 68 12 44 -63 -37 -81 -86
-130 -114 -155 -89 -14 14 -12 21 23 72 30 43 36 57 25 64 -16 10 -50 -2 -94
-32 l-31 -22 20 25 c45 52 49 59 34 59 -8 -1 -51 -42 -96 -93z m618 54 c-9
-15 -58 -41 -79 -41 -3 0 7 14 23 30 33 35 72 42 56 11z"/>
<path d="M3415 1876 c-30 -13 -95 -78 -95 -96 0 -4 -3 -15 -6 -23 -8 -21 31
-57 59 -56 21 1 21 1 -3 8 -14 4 -26 14 -28 22 -5 26 16 69 34 69 26 0 84 31
94 51 15 27 -16 41 -55 25z m35 -14 c0 -13 -32 -39 -58 -47 -21 -6 -23 -5 -13
14 17 31 71 56 71 33z"/>
<path d="M1574 1860 c-10 -11 -43 -39 -72 -63 -30 -23 -65 -51 -78 -61 -34
-28 -38 -16 -9 38 14 26 25 51 25 57 0 22 -21 5 -49 -41 -25 -41 -29 -55 -21
-70 6 -11 14 -20 19 -20 12 0 58 36 109 84 60 57 52 34 -21 -59 -54 -68 -68
-81 -102 -88 -197 -40 -270 -68 -327 -125 -73 -70 -41 -149 58 -145 23 1 60
11 82 22 50 26 146 114 201 184 l41 54 68 6 c38 3 84 13 103 21 22 11 25 14 9
10 -57 -14 -150 -27 -156 -21 -3 3 31 54 75 113 45 59 81 111 81 116 0 14 -16
9 -36 -12z m-199 -267 c-10 -15 -55 -65 -100 -110 -66 -65 -92 -84 -131 -96
-73 -21 -114 -2 -114 55 0 75 133 146 335 181 29 5 30 1 10 -30z"/>
<path d="M3283 1852 c-107 -90 -164 -134 -170 -129 -3 4 7 29 21 58 15 28 24
54 21 58 -11 10 -54 -51 -67 -94 -14 -47 -35 -75 -58 -75 -50 0 -56 78 -9 126
l31 32 -38 0 c-47 0 -85 -18 -113 -54 -43 -54 -13 -94 40 -55 27 20 29 20 29
4 0 -29 29 -63 54 -63 13 0 35 9 49 20 14 11 30 20 36 20 6 0 33 19 59 42 26
23 58 51 72 63 l24 20 -25 -35 c-106 -147 -108 -149 -157 -155 -149 -21 -298
-84 -339 -145 -29 -42 -29 -62 1 -97 20 -23 32 -28 69 -27 81 2 166 59 271
184 l65 77 69 6 c38 3 84 13 103 21 24 12 27 15 9 11 -187 -40 -186 -42 -85
92 47 62 85 115 85 118 0 11 -16 3 -47 -23z m-273 -39 c0 -10 -93 -103 -103
-103 -13 0 3 43 27 69 27 30 76 52 76 34z m64 -240 c-100 -124 -193 -194 -260
-196 -44 -1 -64 18 -64 63 0 46 28 79 97 113 70 36 245 83 262 70 2 -1 -14
-24 -35 -50z"/>
<path d="M1878 1293 c68 -2 176 -2 240 0 64 1 9 3 -123 3 -132 0 -185 -2 -117
-3z"/>
<path d="M2630 925 c-11 -13 -10 -14 4 -9 9 3 16 10 16 15 0 13 -6 11 -20 -6z"/>
<path d="M718 840 c2 -37 8 -60 15 -60 8 0 11 18 9 55 -4 50 -2 55 16 55 29 0
38 -21 17 -37 -16 -11 -16 -13 -3 -13 8 0 21 7 28 15 19 23 -5 45 -49 45 l-36
0 3 -60z"/>
<path d="M860 885 c-18 -22 -5 -45 30 -51 32 -7 40 -31 14 -41 -9 -3 -26 -1
-36 6 -16 10 -19 10 -16 -1 3 -7 18 -14 35 -16 59 -6 70 55 12 68 -13 3 -25
14 -27 24 -3 16 1 18 27 14 17 -2 31 -1 31 4 0 14 -57 9 -70 -7z"/>
<path d="M998 840 c5 -81 27 -81 27 0 0 47 -3 60 -15 60 -12 0 -14 -12 -12
-60z"/>
<path d="M1106 878 c-21 -30 -20 -54 4 -78 20 -20 74 -28 84 -12 3 5 -8 7 -23
4 -33 -5 -61 19 -61 52 0 32 24 49 60 44 16 -3 30 -1 30 4 0 4 -18 8 -39 8
-30 0 -44 -6 -55 -22z"/>
<path d="M1266 878 c-32 -46 -6 -98 49 -98 55 0 87 67 49 104 -24 24 -80 20
-98 -6z m82 0 c7 -7 12 -24 12 -38 0 -47 -42 -66 -74 -34 -32 31 -14 84 29 84
12 0 26 -5 33 -12z"/>
<path d="M1445 840 l0 -61 39 3 c22 2 41 9 44 16 3 11 0 11 -16 1 -33 -21 -52
-5 -52 45 0 26 5 46 13 49 6 3 3 6 -8 6 -18 1 -20 -5 -20 -59z"/>
<path d="M1596 885 c-22 -22 -20 -68 3 -89 27 -25 70 -17 95 17 19 26 19 30 5
55 -18 33 -77 43 -103 17z m86 -20 c16 -35 -3 -75 -35 -75 -32 0 -47 18 -47
55 0 39 6 45 42 45 21 0 32 -7 40 -25z"/>
<path d="M1769 879 c-41 -41 -3 -102 61 -97 28 2 36 8 38 26 2 14 -2 22 -11
22 -10 0 -13 -7 -10 -20 4 -16 0 -20 -19 -20 -68 0 -76 92 -9 98 20 2 37 -2
42 -10 7 -10 9 -9 9 5 0 26 -73 24 -101 -4z"/>
<path d="M1945 840 c0 -33 4 -60 10 -60 6 0 10 27 10 60 0 33 -4 60 -10 60 -6
0 -10 -27 -10 -60z"/>
<path d="M2065 845 c-28 -65 -28 -65 -16 -65 5 0 11 9 14 20 3 14 14 20 31 20
19 0 26 -5 26 -20 0 -11 7 -20 15 -20 12 0 10 11 -10 57 -14 31 -28 59 -30 61
-2 3 -16 -21 -30 -53z m38 5 c4 -15 0 -20 -13 -20 -13 0 -17 5 -13 20 3 11 9
20 13 20 4 0 10 -9 13 -20z"/>
<path d="M2318 888 c-46 -37 -15 -108 48 -108 19 0 34 4 34 8 0 5 -13 7 -29 4
-23 -3 -33 2 -47 22 -14 22 -15 31 -5 53 10 23 16 25 51 20 23 -3 38 -1 34 4
-8 13 -68 11 -86 -3z"/>
<path d="M2468 840 l4 -60 38 0 c27 0 40 5 45 18 5 14 4 15 -6 5 -7 -7 -24
-13 -37 -13 -23 0 -24 3 -20 55 2 44 0 55 -12 55 -12 0 -14 -12 -12 -60z"/>
<path d="M2618 840 c2 -33 7 -60 12 -60 5 0 10 27 12 60 2 48 0 60 -12 60 -12
0 -14 -12 -12 -60z"/>
<path d="M2715 840 c0 -34 4 -60 10 -60 6 0 9 20 7 48 l-3 47 42 -47 c22 -27
45 -48 50 -48 5 0 9 27 9 60 0 46 -3 60 -15 60 -8 0 -13 -6 -11 -12 10 -32 15
-78 8 -78 -4 0 -22 21 -41 45 -18 25 -38 45 -45 45 -7 0 -11 -22 -11 -60z"/>
<path d="M2905 840 c0 -38 4 -60 11 -60 8 0 10 15 6 45 -3 28 0 50 8 60 10 12
9 15 -6 15 -16 0 -19 -8 -19 -60z"/>
<path d="M3018 888 c-46 -37 -15 -108 48 -108 19 0 34 4 34 8 0 5 -13 7 -29 4
-23 -3 -33 2 -47 22 -14 22 -15 31 -5 52 10 22 17 26 46 22 19 -2 35 0 35 4 0
13 -65 9 -82 -4z"/>
<path d="M3207 883 c-3 -10 -15 -37 -26 -60 -16 -35 -17 -43 -6 -43 8 0 14 3
14 8 -4 23 4 32 27 32 17 0 28 -6 31 -20 3 -11 11 -20 18 -20 9 0 6 15 -11 50
-13 27 -24 54 -24 60 0 17 -17 11 -23 -7z m23 -39 c0 -8 -7 -14 -15 -14 -17 0
-18 2 -9 24 7 18 24 12 24 -10z"/>
</g>
</svg>
