<?xml version="1.0" standalone="no"?>
<!DOCTYPE svg PUBLIC "-//W3C//DTD SVG 20010904//EN"
 "http://www.w3.org/TR/2001/REC-SVG-20010904/DTD/svg10.dtd">
<svg version="1.0" xmlns="http://www.w3.org/2000/svg"
 width="436.000000pt" height="436.000000pt" viewBox="0 0 436.000000 436.000000"
 preserveAspectRatio="xMidYMid meet">
<metadata>
Created by potrace 1.11, written by Peter Selinger 2001-2013
</metadata>
<g transform="translate(0.000000,436.000000) scale(0.100000,-0.100000)"
fill="#000000" stroke="none">
<path d="M1950 4350 c-119 -15 -158 -22 -240 -40 -635 -142 -1176 -562 -1475
-1145 -31 -60 -103 -227 -111 -255 -2 -8 -17 -60 -34 -114 -17 -55 -32 -111
-35 -124 -2 -14 -9 -48 -14 -76 -29 -146 -36 -223 -36 -411 1 -186 12 -324 35
-415 5 -19 12 -51 15 -70 10 -58 60 -229 84 -285 156 -366 291 -569 541 -811
255 -247 608 -442 963 -533 63 -16 138 -32 168 -36 30 -4 56 -8 59 -10 37 -23
542 -23 613 0 7 2 30 6 52 9 33 4 131 24 196 40 494 122 969 464 1266 910 66
99 176 308 208 396 61 167 99 309 130 485 25 151 26 511 0 635 -3 14 -7 39 -9
55 -3 17 -10 53 -16 80 -7 28 -13 59 -16 70 -21 110 -104 328 -183 480 -318
614 -913 1042 -1601 1151 -112 18 -460 26 -560 14z"/>
</g>
</svg>
